<svg xmlns="http://www.w3.org/2000/svg" viewBox="0 0 40 40" fill="none"><g clip-path="url(clip0)"><path fill="#B3B3B3" d="M4.028 31.655l15.866 8.72 15.947-8.838L38.814 6.88 19.874.375 1.054 6.998l2.974 24.657z"/><path fill="#A6120D" d="M19.83 38.292l14.336-7.935 2.77-22.051L19.83 2.472v35.82z"/><path fill="#DD1B16" d="M19.83 38.291V2.471L3.166 8.411l2.548 22.051 14.116 7.83z"/><path fill="#F2F2F2" d="M24.539 21.54l-4.71 2.203h-4.962l-2.334 5.835-4.34.08L19.83 3.774l4.709 17.768zm-.456-1.108l-4.222-8.36-3.464 8.216h3.432l4.254.144z"/><path fill="#B3B3B3" d="M23.79 20.295h-3.952l-.009 3.442 5.466.006 2.554 5.917 4.152.076L19.83 3.773l.03 8.3 3.93 8.222z"/></g><defs><clipPath id="clip0"><path fill="#FFF" d="M0 0h40v40H0z"/></clipPath></defs></svg>