<svg xmlns="http://www.w3.org/2000/svg" viewBox="0 0 40 40" fill="none"><path fill="#96969C" d="M16.1 2.94C9.82 4.28 4.52 9.5 3 15.84c-.5 2.08-.54 5.52-.08 7.72C4.2 29.8 9.16 34.94 15.6 36.72c1.86.52 6.56.52 8.5 0 8.16-2.16 13.56-9.58 13.04-17.9-.16-2.42-.58-4.06-1.56-6.18-2.32-5-6.82-8.62-12.18-9.74-1.8-.38-5.44-.36-7.3.04zm4.98 6.9c.28.46 6.96 16.46 7.22 17.3.16.54-.66 1.46-1.3 1.46-.22 0-2.36-1.56-4.96-3.66-2.5-2.02-4.64-3.72-4.78-3.8-.14-.1-.7 1.08-1.7 3.56l-1.46 3.7h-2.7l.32-.74c.16-.42 1.88-4.56 3.82-9.22 1.94-4.66 3.64-8.6 3.8-8.76.46-.44 1.4-.36 1.74.16z"/><path fill="#96969C" d="M19.04 16c-.58 1.44-1.04 2.68-1.04 2.78 0 .2 6.2 5.1 6.32 4.98.08-.1-3.86-9.96-4.1-10.22-.08-.08-.62 1.02-1.18 2.46z"/></svg>