<svg viewBox="0 0 40 40" fill="none" xmlns="http://www.w3.org/2000/svg"><g clip-path="url(clip0)"><path d="M11.67 25.19l-3.66 1.58 3.39 1.46 3.93-1.46-3.66-1.58zm-5.5 1.98l-.13 7.12 5.36 2.38v-7.4l-5.24-2.1zm11 0l-4.84 1.85V36l4.85-1.98v-6.85zM22.98 5l-3.7 1.58 3.42 1.46 3.93-1.46L22.96 5zm-5.13 2.1v7.13l4.58 1.33.15-6.48-4.73-1.98zm10.24.4l-4.33 1.86v7l4.33-1.98V7.5zM5.63 15.03L1.97 16.6l3.39 1.46 3.93-1.46-3.66-1.58zM.13 17L0 24.13l5.36 2.38v-7.4l-5.24-2.1zm11.01 0L6.3 18.86v6.98l4.84-1.98v-6.85zm6.3-2.25l-3.67 1.59 3.4 1.46 3.93-1.46-3.66-1.59zm-5.51 1.99l-.13 7.12 5.37 2.38v-7.4l-5.24-2.1zm11.02 0L18.1 18.6v6.98l4.85-1.98v-6.86zM34.49 5l-3.66 1.58 3.39 1.46 3.94-1.46L34.48 5zm-5.5 1.98l-.13 7.12 5.36 2.38v-7.4l-5.24-2.1zm11.01 0l-4.84 1.86v6.97L40 13.83V6.98z" fill="#F7A80D"/></g><defs><clipPath id="clip0"><path fill="#FFF" d="M0 0h40v40H0z"/></clipPath></defs></svg>