<svg xmlns="http://www.w3.org/2000/svg" viewBox="0 0 40 40" fill="none"><path fill="#FCD100" d="M40 0H0v40h40V0z"/><path fill="#000" d="M19.922 15.13c-.339.235-.723.475-1.153.71l.006.07c.026 0 .065-.02.118-.051.052-.007.078.019.084.063l.072-.038h.032v.032c.007.038-.267.24-.8.607l.038.076h-.032l-.085-.032c0 .026-.033.045-.11.051v.032l.084.101a.293.293 0 01-.124-.032c-.176.013-.345.14-.515.367l.04.07c.15-.133.234-.202.26-.202l.007.107c-.026 0-.065.02-.118.05l.098.134c.176-.19.371-.348.58-.481.104.031.163.063.163.095l.078-.007c.586-.417 1.16-.715 1.726-.898l.007.07c-.104.151-.176.227-.215.233.006.051.02.095.045.14.007.095-.247.727-.768 1.898-1.193 2.716-2.19 4.728-2.997 6.032 0 .025.02.063.052.108.202-.045.326-.095.378-.14h.032l.007.07.085-.006.071-.038c0 .019.026.031.079.025l.006.076c.007.07-.039.177-.124.33-.084.088-.176.278-.267.562l.007.038.078-.006c.326-.354.567-.696.736-1.038.945-.272 1.661-.532 2.163-.791.508-.044.886-.171 1.146-.38l-.006-.038-.196.057-.039.007-.006-.038c.371-.051.625-.133.762-.241.717-.538 1.257-.918 1.629-1.14 1.133-.81 1.668-1.581 1.602-2.328-.006-.076-.254-.38-.749-.912-.006-.101.163-.247.508-.436l.99-.836c.222-.272.352-.715.391-1.329l-.013-.14c-.039-.423-.358-.765-.957-1.03-.359-.235-.997-.362-1.916-.387-.742.05-1.739.317-2.97.785zm5.303.051l-.04.076-1.094-.449c.736.032 1.114.152 1.134.374zm-4.443 2.963c.078-.4.163-.62.254-.671l.827-1.798c-.006-.107.163-.196.521-.26l.118-.012.006.108c.352-.057.567-.089.658-.095.652-.057.99.076 1.016.38l.079-.007-.013-.17.078-.007c.189.101.286.221.3.367.006.101-.046.228-.157.38-.052.006-.078-.032-.085-.102l-.078.007-.026.215c-.332.487-.567.734-.716.747-.13.177-.215.266-.255.266-.104.12-.384.329-.846.614-.157.012-.724.227-1.707.645-.046-.019-.104-.025-.157-.019l-.006-.07c-.013-.132.052-.303.189-.518zm4.547-2.216l.006.076c-.039 0-.11-.114-.228-.341l-.006-.07c.072-.006.15.108.228.335zm-7.208.861l.007.077c-.028 0-.07.039-.125.09h-.035l-.007-.141.16-.026zm2.397-.057l.007.108c-.043 0-.094.057-.16.152l-.007-.07c.073-.082.109-.146.109-.19h.05zm-.327.747l.033.16-.1.007-.033-.16.1-.007zm-.122.26c-.008.12-.048.183-.12.19l-.047.006c.056-.083.08-.146.072-.19l.095-.007zm-.183.373l.007.04-.072.12-.087.007-.008-.04c.087-.007.13-.047.124-.127h.036zm-.084.335l-.06.184h-.077l-.03-.184h.167zm3.918.133l.163.095c.006.044-.02.076-.072.076-.072-.044-.124-.063-.163-.057v-.107l.072-.007zm-3.137.405l.007.141-.16.026-.007-.141.16-.026zm2.531.26c.11.05.163.096.17.134v.032c-.105.006-.203-.045-.294-.16l.124-.006zm-3.264.778c.443-.038 1.14-.24 2.098-.607l.24-.02c.483-.037.841.051 1.082.273l.013.14c-.176.493-.371.784-.586.873l-.984.772c-.736.468-1.133.702-1.198.709-1.173.626-1.903.949-2.19.974l-.038.006c.026-.132.547-1.17 1.563-3.12zm1.066-.411l.006.1-.16.033-.006-.1.16-.033zm3.555-.158l.028.29c-.042.07-.077.108-.118.115l-.049-.494c.09.025.14.057.14.089zm-6.015 2.48c-.054.241-.109.368-.163.368v-.032c-.02-.114.034-.228.163-.335zm.977 1.355c.287-.05 1.075-.45 2.365-1.202l.006.07c0 .03-.104.126-.332.278-.651.316-1.042.525-1.16.633-.71.24-1.061.392-1.055.449-.632.24-1.042.418-1.244.532-.046.006-.117-.013-.202-.057-.013-.127.046-.222.17-.298a.737.737 0 01.312.044c.117-.056.32-.12.612-.196l-.006-.07-.241.02c.026-.045.254-.146.677-.31l.118-.013v.032c-.202.018-.313.075-.339.177.006.044.033.07.085.063.163-.076.234-.133.234-.152zm-1.132-.867v.046c.014.074-.04.12-.15.12l-.014-.055c0-.046.055-.092.164-.111zm1.764.494c-.091.006-.267.082-.528.221l-.039.007-.006-.07a.8.8 0 00.488-.215c.053-.007.079.012.085.057zm-1.915.53l.117-.024.007.071c-.027 0-.066.036-.118.084l-.078.012c-.006-.072.02-.12.072-.143zm-.788.413l.078.031c-.026.222-.098.336-.202.342a.517.517 0 00-.241-.05l-.007-.108c-.006-.038.02-.063.072-.076.052-.006.078.032.085.101.13-.158.202-.24.215-.24zM4.586 14.814c-.443.317-.95.627-1.518.93l.007.096c.039 0 .085-.026.15-.057.065-.007.104.019.104.082l.104-.057.052-.006.007.044c.006.044-.352.317-1.062.804l.059.088-.053.007-.11-.038c0 .031-.046.05-.15.057l.006.05.118.127a.427.427 0 01-.157-.032c-.228.02-.456.184-.677.488l.058.088c.196-.17.307-.26.34-.26l.012.14a.46.46 0 00-.15.057l.124.177c.235-.247.489-.456.775-.626.144.038.215.076.215.126l.105-.006c.762-.55 1.518-.943 2.267-1.19l.006.095c-.137.202-.234.304-.286.31.006.07.032.127.071.184.013.126-.325.955-1.016 2.5C2.41 22.574 1.094 25.219.033 26.94a.37.37 0 00.058.14c.26-.064.43-.121.502-.184l.058-.007.007.095.098-.006.104-.057c0 .032.039.044.104.038l.007.095c.006.095-.046.24-.17.437-.11.12-.221.367-.345.74l.007.044.097-.006c.424-.462.75-.918.97-1.36 1.245-.355 2.19-.703 2.848-1.045.658-.057 1.166-.222 1.505-.5l-.007-.05-.247.069-.059.006-.006-.05c.482-.07.82-.178 1.003-.317.944-.709 1.654-1.209 2.137-1.506 1.491-1.063 2.195-2.089 2.11-3.063-.006-.102-.338-.5-.983-1.197-.013-.133.215-.322.67-.576l1.297-1.107c.287-.36.463-.943.521-1.747l-.02-.19c-.051-.563-.468-1.019-1.263-1.367-.47-.31-1.31-.475-2.521-.494-.997.089-2.313.43-3.929 1.038zm6.984.083l-.04.095-1.445-.589c.964.038 1.459.203 1.485.494zm-5.85 3.898c.098-.519.208-.816.332-.886l1.082-2.36c-.013-.146.215-.26.69-.336l.156-.012.013.132c.47-.07.756-.107.867-.12.86-.07 1.303.095 1.342.506l.098-.006-.02-.24.104-.007c.254.133.391.298.404.494.013.133-.058.297-.221.494-.065.006-.105-.038-.111-.133l-.104.006-.026.285c-.437.633-.75.956-.945.975-.176.234-.287.354-.332.36-.137.159-.508.43-1.12.81-.203.02-.952.298-2.248.848-.065-.031-.13-.038-.209-.031l-.006-.089c-.013-.183.065-.411.254-.69zm5.987-2.911l.006.089c-.052.006-.15-.146-.293-.45l-.006-.088c.09-.013.189.139.293.449zm-9.512 1.127l.007.068c-.033 0-.085.04-.15.088l-.052.01-.007-.137.202-.03zm3.147-.076l.013.139c-.046.006-.11.07-.189.202l-.006-.095c.09-.107.136-.19.136-.246h.046zm-.413.987l.045.19-.12.006-.046-.19.121-.006zm-.193.342c-.013.158-.052.24-.137.247l-.052.006c.059-.108.091-.184.085-.24l.104-.013zm-.215.493l.007.045-.092.152-.097.006-.007-.044c.098-.007.144-.057.137-.152l.052-.007zm-.152.443l-.045.235-.089.006-.033-.234.167-.006zm5.214.171l.215.127c.007.063-.026.101-.091.108a.443.443 0 00-.215-.083l-.013-.139.104-.013zm-4.137.538l.007.138-.202.029-.007-.137.202-.03zm3.336.33c.143.063.215.126.221.177l.007.044c-.137.013-.26-.057-.378-.209l.15-.013zm-4.3 1.025c.586-.05 1.511-.317 2.769-.798l.306-.025c.638-.05 1.114.063 1.427.354l.02.19c-.235.659-.496 1.038-.776 1.159L6.925 23.15c-.97.62-1.492.93-1.57.937-1.544.829-2.508 1.253-2.88 1.284l-.058.007c.052-.177.736-1.545 2.065-4.114zm1.407-.538l.007.116-.209.05-.006-.116.208-.05zm4.678-.203l.032.374c-.045.1-.09.152-.143.152l-.059-.659c.111.045.163.089.17.133zM2.638 23.79c-.065.323-.136.487-.208.494l-.007-.045c-.013-.164.06-.31.215-.449zm1.303 1.785c.378-.07 1.414-.601 3.114-1.582l.007.088c.006.038-.143.158-.437.367-.866.412-1.374.697-1.524.842-.938.316-1.4.513-1.394.589-.834.323-1.381.557-1.642.702-.058.007-.15-.019-.267-.07-.013-.164.059-.297.228-.405a.852.852 0 01.417.064c.156-.076.423-.165.808-.253l-.007-.095-.306.025c.04-.05.332-.183.893-.405l.156-.013.006.045c-.26.019-.41.1-.443.234.007.057.04.088.105.082.189-.126.286-.196.286-.215zm-1.54-1.146l.011.049c.011.07-.044.111-.153.118l-.01-.049c-.012-.062.043-.104.152-.118zm2.374.646c-.124.013-.352.108-.697.297l-.052.007-.006-.095c.247-.02.462-.114.638-.285.072-.013.11.019.117.076zm-2.527.69l.156-.02.006.075c-.039 0-.084.037-.15.083l-.097.01c-.007-.065.02-.12.085-.149zm-1.036.557l.11.044c-.039.285-.123.43-.273.443a.683.683 0 00-.32-.063l-.012-.14c-.007-.056.026-.088.097-.107.065-.006.105.038.111.133.176-.209.274-.31.287-.31zM30.11 13.884l-.085-.032-1.388.21a.36.36 0 00-.189-.032 2.6 2.6 0 00-.37.076l-.672.272.052.082a.337.337 0 00.137-.05l.235.018-.033.216c-.215.094-.345.234-.378.417-.326.14-.488.24-.488.304l.006.038.052-.006.091-.045.105.12.013.165c.006.05-.548 1.184-1.655 3.393-.958 2.126-1.46 3.29-1.511 3.5-.326.088-.522.221-.574.392.007.057.104.089.293.108l.007.082-.085.14.013.164c.007.088.248.152.717.202 0-.031.013-.044.045-.05.007.1-.019.303-.09.607l.051-.006c.196-.26.287-.437.28-.538l.04-.006c.045-.007.097.05.156.164-.059.025-.267.481-.619 1.374l.052.082.052-.007c.437-1.07.71-1.664.821-1.778.573-.05 1.557-.146 2.964-.291l.085-.05c0 .03.02.044.052.037l.091-.006.085-.05c0 .03.02.044.052.037l1.062-.088c.28-.026.417-.108.404-.247-.007-.038.163-.083.502-.127.032 0 .078.007.143.026 0-.026.163-.051.502-.083.006-.17.065-.266.169-.272l-.007-.082a1.52 1.52 0 00-.325.07c-.222-.013-.365-.026-.424-.051a.336.336 0 01-.137.05l-.742.026-.091.044c0-.025-.02-.038-.053-.032l-.039.007-.097.044c0-.025-.079-.044-.235-.063l-.091.05-.182.013-.007-.044c.951-.102 1.427-.228 1.414-.38.058-.006.09.025.097.082l.28-.07-.006-.082-2.28.064c0 .031-.013.044-.046.05l-.28-.025a.308.308 0 00-.176.063l-.104-.038a3.384 3.384 0 00-.645.102 4.519 4.519 0 00-.651.006l-.515.044-.235-.025c-.013-.146.28-.867.886-2.165.176-.437.34-.709.489-.81.033 0 .078.006.143.032l.365-.12.189.031c.313-.025.678-.114 1.095-.26a.615.615 0 01.234.02l.28-.064.828-.07a6.027 6.027 0 001.146-.227l-.006-.082c-.157.012-.235-.013-.241-.07-.013-.114-.124-.158-.34-.14l-.006-.082.228-.063.6-.05-.007-.083c-.026 0-.143 0-.371-.006l-.007-.089.235-.019c.058-.006.091-.038.085-.088-.313.006-.47-.007-.47-.045-2.169.102-3.25.12-3.257.057-.032 0-.078.02-.137.057l-.058-.088c.573-1.184.912-1.785 1.01-1.791.006.044-.02.12-.072.221l.006.038.092-.006c.228-.532.416-.804.58-.817.677-.057-.098-.1 1.36-.323.06.026.105.038.131.032.573-.114 1.368-.228 2.391-.348l-.006-.082-.548.05-.006-.082a.285.285 0 00.163-.063l.006.044c.033 0 .072-.019.124-.057a.435.435 0 01.215.025c.189-.05.339-.075.456-.088l.339-.032c.084-.05.124-.095.117-.139v-.038c-.085.006-.182 0-.3-.019-.006-.044.02-.076.079-.089l.631-.057.294-.07c0 .032.02.045.039.045.032 0 .071-.019.123-.057.15.02.241.025.261.02.117-.108.254-.197.404-.254-.065-.063-.098-.114-.104-.158l-.424.038c0-.032-.02-.07-.045-.127 0-.038.09-.076.286-.114l.085.032.078-.044c0 .025.02.038.046.031l.078-.044c0 .025.02.038.046.032l.039-.007-.007-.082a5.133 5.133 0 01-.462 0l-.079.05-.006-.044c-1.987.159-3.114.247-3.381.272-.033 0-.176 0-.417-.006 0 .032-.026.05-.085.05l-.085-.037-.293.07c-.065.006-.182 0-.345-.013a.338.338 0 01-.163.063c-.065.006 1.577-.089 1.525-.114l-.254.07-.04.006a2.143 2.143 0 01-.39-.013.4.4 0 01-.209.064.29.29 0 01-.17-.032c-.071.02-.28.07-.631.133zm.104.253c0 .033.033.047.085.04l.006.087-.085.007a.279.279 0 01-.169-.034.295.295 0 01-.163.067h.026l-.234-.027-.007-.04c.287-.02.378-.053.541-.1zm.237-.014l.058-.011.008.144-.166.022c0-.077.025-.133.1-.155zm.48-.056l.006.059a1.4 1.4 0 00-.371.1l-.046.008.04-.117.37-.05zm-3.7.484l.16-.023-.008-.144-.16.022.008.145zm1.022-.16l.052-.007.098.045c.006.069-.026.106-.085.106l-.143.016-.007-.053c-.006-.053.026-.084.085-.106zm3.277.183v.1l-.293.066v-.1l.293-.066zm-.84.12l.006.117-.17.033-.006-.117.17-.033zm.807.063l.587-.095.3.013.006.044a1.468 1.468 0 00-.371.076c0-.031-.06-.057-.176-.07l-.463.127c-.091-.05-.137-.088-.137-.114l.254.02zm-.58.128c.06-.01.085.03.092.123l-.248.042-.006-.134.163-.031zm-.514.006l.006.065 1.525-.102-.007-.065-1.524.102zm.091.082v.09l-.332.076v-.09l.332-.076zm-2.182 1.677l.008.044.119-.006c0-.032.008-.076.04-.133l-.009-.082c-.063.006-.119.063-.158.177zm-3.293 4.734l.01.048c.012.071-.043.11-.152.119l-.011-.048c-.01-.063.044-.095.153-.119zm-.147.177c.006.082-.052.285-.17.614l-.143.013c-.006-.057.072-.26.222-.614l.091-.013zm1.57 1.323c.006.05-.072.109-.222.167l-.286-.022-.091.007-.007-.094.606-.058zm.28.025l.007.1-.235.05-.006-.1.234-.05zm8.73-9.114c-.104.462-.274.804-.502 1.032l-.163-.101c.176-.437.26-.69.254-.753l-.045-.07c-.059.006-.137.158-.235.462l-.084.006a.349.349 0 00-.046-.145l-.04.006c-.768 2.082-1.113 3.05-1.823 4.652-.13.411-.241.64-.339.683.007.045.033.07.085.064a.997.997 0 01-.144.595c-.332.918-.547 1.424-.658 1.512l.072.437c.007.044-.02.076-.072.076l-.078.006c-.013-.12-.058-.177-.137-.17l-.039.006a1.81 1.81 0 00-.228.531l.078-.006c.105-.063.15-.14.144-.234l.156-.013.085.032c-.072.108-.104.196-.098.26l.04.07-.099.227.007.038a.496.496 0 01.293.082.571.571 0 00.235-.088c.09-.007.417-.013.99-.013l.287-.095c.351-.006.403.006.71-.019l.123-.013.065-.044.007.038c.313-.025.339-.006.586.025l.007.038-.176.013.007.07a.256.256 0 00.136-.051c.046-.006.072.019.079.07-.072.006-.15.025-.241.05l-.079-.025c-.123.032-.097.038-.176.044l-.123-.025c0 .019-.007.032-.026.038.006.044.026.07.071.063l.15-.012-.065-.026c0 .02.013.032.039.032l.645-.057.248-.05c0 .018.013.03.032.03l.117-.043.222-.02c.176-.012.17-.025.54-.082 0-.019.007-.031.027-.031v.031c.71-.114.645-.107.794-.158l-.032-.076c-.202.044-.196.02-.3.032l-.54.025-.007-.038.3-.038.11-.006.059-.044.006.038c.424-.038.574.07 2.548-.336.104-.006.097-.095.163-.272a.196.196 0 01-.105-.025c-.162.063-.247.031-.56.082-.026 0-.045-.02-.058-.07v-.031l.3.012c.051-.006.169-.012.325-.101.032.019-.026.038.006.032l.053-.007c.032 0 .045-.025.045-.076l-.032-.07c-.202.02-.3.026-.463.115l-.006-.038-.248.025c-.007-.076-.026-.108-.059-.108l-.13.013c-.15.013-.221.006-.293.063 0-.025-.013-.038-.026-.038l-.144.013-.084.044c0-.025-.013-.038-.026-.038l-.052.045-.007-.038-.195-.013-.046.006.006.07.105.025.091-.006a.219.219 0 00.11.025l.085-.038v.032c-.462.114-.462.089-.781.146-.04-.026-.065-.032-.078-.032-.033.032.039.006.019.006-.052.007-.078-.019-.085-.063l.163-.02c.013 0 .02.014.11.033.131-.064.138-.089.21-.095l-.007-.07c-.456.089-.274.032-.847.076h-.026l-.007-.07c.737-.088.489-.038.737-.107 0 .025.013.038.026.038a.156.156 0 01.104-.045l.052-.006c.254-.019.345.032.853-.107v.031l.085-.038.078-.006c-.006-.076.111-.082.144-.089l-.007-.076c-.892.178-1.127.127-1.374.197v-.032c-.235.044-.242.019-.3.025-.02 0-.046.02-.072.045 0-.026-.013-.038-.032-.038-.04 0-.02.012-.052.044l.052-.044-.776.12c0-.02-.013-.032-.032-.032-.391.082-.287.095-.815.14a.194.194 0 00-.097.037c0-.019-.013-.031-.04-.031l-.325.025-.215.05c0-.018-.013-.031-.04-.031-.123.032-.227.05-.312.057h-.006c-.052.006.026-.013-.013-.032l-.066.038c-.097.007-.045-.006-.37 0-.574.07-.51.076-.574.083l-.215-.013c0 .019-.007.032-.033.038-.24-.032-.365-.07-.371-.114.033-.222.085-.335.17-.348l.038-.006-.039.075.04-.006c.078-.038.11-.076.11-.114l-.006-.076-.079.007-.006-.07a.266.266 0 01.02-.146l.175-.272.007.07.085-.006-.007-.07-.046-.07c.06-.05.111-.082.15-.082l-.006-.038-.111.006-.006-.107c.221-.456.332-.722.325-.791l.078.031c.052-.006.079-.031.072-.082l-.078.006v-.031a.289.289 0 01.026-.152c.124-.12.176-.247.163-.38.026 0 .039.013.039.038.104-.057.182-.209.241-.462.182-.323.443-.968.782-1.93.651-1.703.625-1.886.716-2.285l-.078.006a.23.23 0 01-.032.146.444.444 0 00-.124-.032v-.032c-.013-.145.052-.322.195-.531h.033l.065.247.078-.007c0-.019.02-.114.059-.297-.007-.038-.033-.057-.091-.063l-.072.044c-.007-.05 0-.184.006-.405l-.071.012zm-.93 1.095l.041-.006c-.062.103-.111.16-.16.167l-.007-.11a.327.327 0 00.125-.05zm-.334.76c.078-.31.156-.487.228-.532l.006.038c-.039.291-.104.437-.195.45l.013.183c-.072.095-.104.171-.098.228l-.039.006-.02-.253c.04-.006.079-.044.105-.12zm-.088.411c.008.045-.034.146-.108.298l-.05.006-.008-.108c.058-.126.116-.19.166-.196zm-2.18 4.622l.056.102c.083-.01.12-.046.11-.111l-.01-.056-.054.01-.101.055zm1.03.809v.031c.059-.006.117-.107.17-.304l-.079-.025a1.31 1.31 0 00-.09.298zm6.607.225v.035l-.08.084.152-.05h.016l-.008-.075h-.032l-.056.041c0-.02.167-.062.04-.083-.024.035.04.042-.032.048zm.24.321l.176-.03c-.007-.106-.117-.137-.156-.137h-.026l.006.167zm-3.114-.034l.052.104c0-.03.007-.052.026-.052l.04.115-.164-.031c-.013-.084.007-.125.046-.136zm-.534.058c.059-.013.098.064.098.165h-.183v-.063a.245.245 0 00.085-.102zm.427-.02l.007.1-.16.034-.007-.1.16-.034zm-1.522.155c0 .02.013.035.04.035.24-.049.214-.056.332-.07.039-.006.058.021.065.07l-.671.062.065.034-.006-.041-.255.02-.006-.04.228-.022.208-.048zm.69-.06v.076c-.019 0 .066.015.027.09-.143-.03-.15-.06-.254-.045v-.075l.228-.046zm.213-.019v.084l-.166.033v-.083l.166-.034zm-4.136.646l.012.165a.148.148 0 01-.166-.107v-.048l.154-.01zm5.5-.095l.007.07.13-.013-.052-.032.007.038.13-.05c.893-.095.997-.057.984-.159v-.031c-.9.196-1.017.158-1.205.177zm1.396-.068l.159.045-.008-.123-.159-.044.008.122zm-3.858.2c.039.033-.046.066.006.055l.457-.067.006.067c-.13.022-.215.055-.241.1 0-.045-.013-.067-.04-.067l-.195.033-.006-.066c.052-.011-.026-.011.013-.056zm2.11-.035l.04.108c.15-.05.065-.04.104-.089 0 .04.013.059.026.059l.104-.01-.006-.117-.274-.01.007.059zm-2.528.348h-.067l-.017-.167h.067l.017.167zm-2.09.145l.006.039 1.199-.097-.006-.07-.958.077-.202-.026-.04.077zm1.345.026h.034l-.017-.167h-.033l.016.167zm-18.25-6.211c-.848.98-1.284 1.519-1.317 1.627-.345.348-.514.556-.495.626-.091.057-.13.114-.117.177-.026.007-.046-.006-.052-.031-.15.234-.365.38-.658.449l-.306.07c-.04.006-.059.038-.059.088l.007.038.117-.025.006.032-.26.094-.463.102-.24.012c-.033.032.188-.006.103.02l-.3.069c-.182.044-.286.025-.299-.044l-.033.006c.02.07 0 .114-.052.127l.059-.013-.026-.108-.547.127.058.025c-.006-.025-.032-.031-.084-.019l-.072.057-.085-.019a.645.645 0 01-.143.07l-.085-.02c-.228.127-.058.127-.071.127l.02.07.13-.032.201-.012-.02.082c-.742.19-.201.082-.403.127l-.04.006.02.07.118-.026.006.038c-.15.032-.234.064-.26.095l-.007-.038c-.195.045-.39.19-.586.43.032.14-.391.31 1.602-.139.137-.006.215-.006.235-.012-.007-.026.006-.038.032-.045.222-.025.118.013.255-.019l.43-.095-.092.051c-.006-.019.007-.032.026-.038a.358.358 0 00.163-.006l.026.107-1.7 2.62-.378.456-.182.602.032-.007.183-.076-.059.235.02.07.052.062c-.026.007-.033.02-.026.045l.006.038.078-.02c.111-.094.157-.183.144-.259a.979.979 0 00.24.02l.007.037c-.071.02-.11.076-.117.171l.006.038.04-.006c.618-.652 2.123-2.886 3.335-4.405-.04-.165.593-.393 1.896-.684l.039-.006c.046.196-.052.677-.3 1.443-.163.462-.234.715-.228.753-.208.614-.306.943-.293.994l-.462 1.468c-.3.753-.528 1.544-.685 2.38a.312.312 0 01.124.012l.065-.057c.007.026.02.032.053.032l-.027-.107.202-.007c.059-.012.111-.088.15-.221-.006-.197.033-.304.124-.33.124-.468.202-.708.228-.715.117-.468.202-.734.26-.803.177-.608.3-.924.385-.943l.02.075-.124.323c-.222.956-.45 1.715-.678 2.272l.065.279.04-.006c.553-1.152 1.342-3.43 2.377-6.836a.893.893 0 01.443-.696l-.058-.057-.007-.032c.117-.025.202-.07.248-.133-.007-.025-.111-.063-.313-.114l.612-2.544c.183-.76.307-1.424.372-2.006l-.007-.038a1.395 1.395 0 01-.358-.323v-.152l-.007-.031-.032.006c-.378.557-1.134 1.525-2.248 2.905zm.866.576c.032.133-.02.38-.15.74-.04.456-.209.716-.502.785l-.006-.038-.26.095-.118.025a.283.283 0 01-.163-.006l-.026-.101c-.007-.038.365-.544 1.134-1.513l.09.013zm-.6 1.582l.085-.019.02.07c-.41.12-.639.183-.684.196a.3.3 0 00-.111.063c-.007-.025-.059-.025-.163-.006-.02-.07.267-.171.853-.304zm-4.035 1.135l.137-.033-.03-.133-.137.033.03.133zm1.182-.375l.02.14-.196.026-.006-.077.182-.09zm-2.246.727l.009.1-.159.067-.008-.1.158-.067zm-.262.471l.006.076-.15.076-.02-.167.164.015zm.358-.084l.007.055-.274.111-.006-.055.273-.111zm.476-.076l.006.038-.716.158-.02-.07c.417-.07.371-.044.73-.126zm3.59-.81l.058.063a.405.405 0 00-.182.076l-.085-.013c-.13.05-.248.089-.339.108l-.078.019c-.046.012-.078-.007-.098-.051l.54-.12.183-.083zm.384-.083l.384-.088.007.038a2.204 2.204 0 00-.49.151l-.006-.037a.273.273 0 00.105-.064zm-4.04 1.064l.183-.038.02.07c-.079.018-.02.018-.118.062-.189.02-.15-.006-.45.064l-.006-.038.372-.12zm.496-.08c.052-.023.084.012.09.106l-.11.047c-.045.024-.078-.012-.098-.106l.118-.047zm-2.038 4.025l.016.05c.123-.016.17-.05.139-.116l-.016-.05c-.108.016-.154.05-.139.116zm.155.626c.014.057.042.081.099.065.056-.016.077-.049.063-.113l-.007-.049-.084.024-.071.073zm4.162 1.069c.058-.017.087.009.102.068l.007.051-.167.043a.383.383 0 00.007-.153l.051-.009z"/></svg>