<svg viewBox="0 0 40 40" fill="none" xmlns="http://www.w3.org/2000/svg"><path fill="#759C3E" d="M5.43 11.51h4.69v18.02H5.43z"/><path fill="#4B612C" d="M29.88 11.51h4.69v18.02h-4.69z"/><path d="M20 11.02l-9.88 2.07-4.56-.73L20 7.86l14.32 4.5-4.57.73L20 11.02z" fill="#3C4929"/><path d="M20 32.09L5.56 27.7l4.56-.73L20 29.41l9.88-2.44 4.69.73L20 32.1z" fill="#B7CA9D"/><path fill-rule="evenodd" clip-rule="evenodd" d="M3.33 8.22L20 .06V40L3.33 31.6V8.22zM5.56 27.7V12.36l9.5-2.92v21.18l-9.5-2.92z" fill="#4B612C"/><path fill-rule="evenodd" clip-rule="evenodd" d="M36.67 8.22L20 .06V40l16.67-8.4V8.22zM34.44 27.7V12.36l-9.5-2.92v21.18l9.5-2.92z" fill="#759C3E"/></svg>