<svg xmlns="http://www.w3.org/2000/svg" viewBox="0 0 40 40" fill="none"><g clip-path="url(clip0)"><path fill="#23D96C" fill-rule="evenodd" d="M28.803 3.133a14.026 14.026 0 00-.928-.512 14.06 14.06 0 00-.993-.449 11.27 11.27 0 00-.32-.127c-.295-.111-.592-.232-.896-.321a16.776 16.776 0 10-8.423 32.409v4.804c10.043-1.515 18.936-9.486 19.599-19.953.4-6.297-2.742-12.726-8.039-15.851z" clip-rule="evenodd"/><path fill="#173647" d="M16.338 39.989v-5.126A17.677 17.677 0 0120.445-.011a17.512 17.512 0 015.502.877c.237.069.484.163.722.254l.207.078c.142.056.248.097.357.143.3.12.635.27 1.04.47.341.171.672.353.992.546 5.499 3.245 8.905 9.95 8.478 16.686-.657 10.365-9.221 19.108-20.367 20.789l-1.038.157zm4.13-38.192h-.022a15.87 15.87 0 00-3.03 31.45l.73.142v4.475c9.798-1.921 17.21-9.737 17.793-18.936.385-6.075-2.667-12.11-7.596-15.015l-.008-.005c-.28-.167-.573-.33-.867-.48a12.888 12.888 0 00-.92-.414 9.11 9.11 0 00-.297-.119l-.226-.086c-.214-.081-.418-.159-.614-.216a15.785 15.785 0 00-4.943-.796z"/><path fill="#173647" fill-rule="evenodd" d="M17.095 9.158a1.55 1.55 0 011.362.523c.258.282.47.604.626.952.555 1.223.883 2.977.197 3.96a5.442 5.442 0 01-3.424-2.654 2.785 2.785 0 01-.299-1.152 1.683 1.683 0 011.538-1.629zm-4.032 4.173c.092-.007.185-.007.277 0 .428.008.85.102 1.24.278 1.234.529 2.61 1.821 2.877 2.968-1.058.705-2.965.648-4.2.119a6.65 6.65 0 01-1.047-.634 1.52 1.52 0 01.853-2.73zm1.514 8.819c-.387.185-.81.28-1.24.278a1.563 1.563 0 01-1.212-2.728 3.017 3.017 0 011.047-.635 3.8 3.8 0 011.434-.303c.802-.014 2.18-.193 2.849.252-.177 1.144-1.643 2.607-2.878 3.136zm5.088 2.838a6.38 6.38 0 01-.606 1.048c-.882 1.146-2.926.341-2.839-1.158.008-.393.103-.778.278-1.13.529-1.234 1.967-2.75 3.202-3.015.705 1.058.494 3.11-.035 4.255zm2.16-14.384c.169-.368.372-.719.607-1.048a1.576 1.576 0 011.378-.55 1.648 1.648 0 011.543 1.68 2.785 2.785 0 01-.278 1.158 5.11 5.11 0 01-3.178 2.722c-.792-.968-.6-2.728-.072-3.962zm.772 15.433a3.566 3.566 0 01-.606-.965c-.529-1.235-.51-3.082.195-4.052 1.234.264 2.528 1.577 3.055 2.812.175.361.27.756.277 1.157.089 1.322-1.951 2.106-2.92 1.048zM28 22.343a3.153 3.153 0 01-1.24-.278c-1.234-.528-2.588-1.765-2.852-2.911.678-.445 1.93-.493 2.742-.478.493.008.98.11 1.433.304.367.168.717.37 1.046.605 1.235.885.458 2.846-1.13 2.758z" clip-rule="evenodd"/></g><defs><clipPath id="clip0"><path fill="#FFF" d="M0 0h40v40H0z"/></clipPath></defs></svg>