<svg viewBox="0 0 40 40" fill="none" xmlns="http://www.w3.org/2000/svg"><g clip-path="url(clip0)"><path d="M21.33 20a6.67 6.67 0 1113.34 0 6.67 6.67 0 01-13.34 0z" fill="#1ABCFE"/><path d="M8 33.33a6.67 6.67 0 016.67-6.66h6.66v6.66a6.67 6.67 0 11-13.33 0z" fill="#0ACF83"/><path d="M21.33 0v13.33H28A6.67 6.67 0 0028 0h-6.67z" fill="#FF7262"/><path d="M8 6.67a6.67 6.67 0 006.67 6.66h6.66V0h-6.66A6.67 6.67 0 008 6.67z" fill="#F24E1E"/><path d="M8 20a6.67 6.67 0 006.67 6.67h6.66V13.33h-6.66A6.67 6.67 0 008 20z" fill="#A259FF"/></g><defs><clipPath id="clip0"><path fill="#FFF" d="M0 0h40v40H0z"/></clipPath></defs></svg>