<svg xmlns="http://www.w3.org/2000/svg" viewBox="0 0 40 40" fill="none"><path fill="#327C99" fill-rule="evenodd" d="M19.589 15.913c-1.67.424-2.81.743-4.454 1.168-.398.106-.425.133-.77-.266-.397-.451-.689-.743-1.245-1.009-1.67-.823-3.288-.584-4.8.399-1.802 1.168-2.73 2.894-2.703 5.044.026 2.124 1.484 3.877 3.579 4.169 1.803.239 3.314-.398 4.507-1.753.239-.292.45-.61.716-.982H9.302c-.557 0-.69-.345-.504-.796.345-.823.981-2.204 1.352-2.894.08-.16.265-.425.663-.425h9.65c-.052.717-.052 1.433-.159 2.15-.291 1.912-1.007 3.664-2.173 5.204-1.91 2.523-4.401 4.09-7.556 4.514-2.599.345-5.011-.16-7.132-1.752C1.48 27.197.367 25.232.076 22.789c-.345-2.894.503-5.496 2.253-7.779 1.883-2.47 4.375-4.036 7.424-4.593 2.492-.452 4.878-.16 7.025 1.3 1.406.93 2.413 2.204 3.076 3.744.159.24.053.372-.265.452z" clip-rule="evenodd"/><path fill="#327C99" d="M28.364 30.596c-2.412-.053-4.613-.744-6.469-2.337-1.564-1.354-2.545-3.08-2.863-5.124-.477-3 .345-5.655 2.147-8.018 1.936-2.55 4.269-3.877 7.424-4.434 2.704-.478 5.25-.213 7.556 1.354 2.094 1.433 3.394 3.372 3.738 5.92.45 3.585-.583 6.505-3.049 9.001-1.75 1.78-3.897 2.894-6.363 3.399-.715.133-1.431.159-2.12.239zm6.31-10.727c-.026-.345-.026-.61-.08-.876-.476-2.629-2.89-4.115-5.408-3.531-2.465.557-4.056 2.124-4.64 4.62-.477 2.07.53 4.168 2.44 5.018 1.458.637 2.916.557 4.321-.16 2.095-1.088 3.235-2.787 3.367-5.07z"/></svg>