<svg viewBox="0 0 40 40" fill="none" xmlns="http://www.w3.org/2000/svg"><path d="M40 13.28v23.26A3.46 3.46 0 0136.55 40H3.45A3.44 3.44 0 010 36.66V3.46A3.42 3.42 0 013.45 0h32.92A3.69 3.69 0 0140 3.54v9.74z" fill="#ED4969"/><path d="M27.9 14.08c2.22 0 3.97 1.52 3.97 4.63 0 .76-.12 1.64-.35 2.58l-1.11 3.99c-.12.47-.23.76-.23 1.11 0 .65.35 1.12.76 1.12.52 0 1.22-.47 1.98-2.58l1.52.52c-.87 3.23-2.57 4.58-4.62 4.58-2.45 0-3.56-1.47-3.56-3.46 0-.53.11-1.12.23-1.76l1.11-4.1c.12-.48.24-.89.24-1.24 0-1.35-.76-2.1-2.1-2.1-1.65 0-2.76 1.22-3.34 3.45l-2.22 8.97h-3.8l.64-2.87c-1.11 1.88-2.75 3.1-4.74 3.1-2.34 0-3.45-1.34-3.45-3.45 0-.53.12-1.23.23-1.76l1.76-7.33H8.07l.76-3.11h6.67L12.87 24.8c-.24.64-.24 1.23-.24 1.64 0 .65.35.88.88 1h.23c.65 0 2.75-.35 3.98-3l1.75-6.97h-2.86l.88-3.11h5.96l-.76 3.58c1-2 3.1-3.87 5.2-3.87zM13.91 12.2c-1.35 0-2.34-1-2.34-2.35a2.35 2.35 0 012.34-2.34c1.34 0 2.34 1 2.34 2.34.11 1.35-1 2.35-2.34 2.35z" fill="#FFF"/></svg>