<svg xmlns="http://www.w3.org/2000/svg" viewBox="0 0 40 40" fill="none"><path fill="#8A4182" d="M18.48 16.523h3.092l.769-1.056V7.196h-4.63v8.272l.768 1.055zm-1.994 3.689l.955-2.936-.768-1.056-7.88-2.556-1.43 4.395 7.88 2.556 1.243-.403zm2.898 3.033l-2.502-1.815-1.243.403-4.87 6.692 3.745 2.716 4.87-6.692v-1.304zm3.786-1.816l-2.503 1.815v1.305l4.87 6.692 3.746-2.716-4.871-6.692-1.242-.403zm-.56-4.154l.956 2.937 1.243.403 7.88-2.556-1.43-4.395-7.88 2.556-.77 1.055z"/><path fill="#8A4182" d="M20.027.017C9.017.017.06 8.957.06 19.945c0 10.993 8.957 19.935 19.967 19.935 11.008 0 19.964-8.942 19.964-19.935C39.992 8.957 31.036.017 20.028.017zm0 4.035c8.792 0 15.922 7.115 15.922 15.893 0 8.782-7.13 15.9-15.922 15.9-8.795 0-15.924-7.118-15.924-15.9 0-8.778 7.129-15.893 15.924-15.893z"/><path fill="#8A4182" d="M32.12 24.375l-5.99-1.943.395-1.218 5.99 1.943-.395 1.218zm-7.64-9.6l-1.038-.753 3.702-5.086 1.038.752-3.702 5.087zm-8.844-.046L11.935 9.64l1.038-.752 3.701 5.087-1.038.753zm-7.728 9.57l-.397-1.218 5.99-1.942.396 1.218-5.99 1.942zm11.437 8.353h1.283v-6.288h-1.283v6.288z"/></svg>