<svg xmlns="http://www.w3.org/2000/svg" viewBox="0 0 40 40" fill="none"><path fill="#8CC84B" d="M18.353.508a3.4 3.4 0 013.292 0c5.013 2.805 10.027 5.605 15.038 8.412.944.525 1.574 1.565 1.564 2.64v16.873c.006 1.12-.685 2.184-1.68 2.697-4.997 2.79-9.989 5.583-14.984 8.372-1.018.576-2.343.533-3.33-.092-1.496-.86-2.998-1.715-4.495-2.573-.306-.182-.65-.325-.866-.619.19-.255.531-.286.81-.4.625-.195 1.2-.511 1.773-.818.145-.098.322-.06.462.027 1.28.728 2.55 1.476 3.835 2.196.275.157.551-.05.786-.18 4.902-2.745 9.81-5.478 14.712-8.223a.481.481 0 00.267-.475c.005-5.567.001-11.133.003-16.7a.522.522 0 00-.315-.522C30.247 8.348 25.27 5.567 20.292 2.79a.523.523 0 00-.584 0c-4.98 2.777-9.956 5.56-14.935 8.337a.516.516 0 00-.315.516V28.35a.474.474 0 00.272.468c1.328.747 2.658 1.487 3.987 2.23.75.4 1.668.637 2.493.33a1.873 1.873 0 001.225-1.76c.007-5.533-.003-11.068.005-16.601-.017-.245.217-.45.458-.425a91.389 91.389 0 011.917 0c.267-.005.45.26.417.506-.004 5.57.006 11.139-.005 16.709 0 1.483-.615 3.1-2 3.825-1.709.876-3.82.691-5.507-.15-1.46-.722-2.855-1.574-4.288-2.347-.999-.512-1.687-1.578-1.68-2.7V11.562c-.01-1.099.645-2.155 1.616-2.674L18.352.51l.001-.002z"/><path fill="#8CC84B" d="M22.712 12.197c2.178-.139 4.51-.084 6.47.981 1.518.814 2.36 2.524 2.386 4.194-.043.225-.28.35-.496.333-.634 0-1.265.008-1.897-.003-.268.01-.425-.235-.458-.47-.182-.8-.622-1.59-1.38-1.975-1.167-.579-2.517-.55-3.79-.537-.927.048-1.925.128-2.712.667-.603.41-.787 1.236-.572 1.903.204.477.76.632 1.217.773 2.625.68 5.407.614 7.983 1.507 1.067.367 2.109 1.075 2.474 2.18.476 1.483.266 3.253-.797 4.443-.863.979-2.12 1.512-3.375 1.8-1.667.369-3.4.379-5.093.215-1.592-.18-3.25-.595-4.48-1.67-1.05-.903-1.567-2.313-1.514-3.673.012-.228.242-.39.465-.37.637-.005 1.272-.007 1.909 0 .255-.017.443.2.456.437.117.761.407 1.561 1.077 2.011 1.293.827 2.917.77 4.398.794 1.227-.054 2.605-.07 3.605-.874.529-.458.685-1.225.544-1.883-.155-.557-.744-.817-1.249-.987-2.591-.811-5.405-.516-7.971-1.435-1.042-.365-2.05-1.055-2.45-2.115-.559-1.5-.302-3.355.873-4.505 1.147-1.143 2.802-1.583 4.377-1.741z"/></svg>