<svg xmlns="http://www.w3.org/2000/svg" viewBox="0 0 40 40"><path fill="#387EB8" d="M19.8 0c-10.1 0-9.5 4.4-9.5 4.4V9H20v1.4H6.5S0 9.7 0 19.9c0 10.3 5.7 9.9 5.7 9.9h3.4V25s-.2-5.7 5.6-5.7h9.6s5.4.1 5.4-5.2V5.3c-.1 0 .7-5.3-9.9-5.3zm-5.3 3.1c.2 0 .5 0 .7.1.2.1.4.2.6.4.2.2.3.4.4.6.1.2.1.4.1.7 0 .5-.2.9-.5 1.2-.3.3-.8.5-1.2.5-.2 0-.5 0-.7-.1-.2-.1-.4-.2-.6-.4s-.3-.4-.4-.6c-.1-.2-.1-.4-.1-.7 0-.5.2-.9.5-1.2.3-.3.7-.5 1.2-.5z"/><path fill="#FFC331" d="M20.1 39.9c10.1 0 9.5-4.4 9.5-4.4v-4.6h-9.7v-1.4h13.5s6.5.7 6.5-9.5c0-10.3-5.7-9.9-5.7-9.9h-3.4v4.8s.2 5.7-5.6 5.7h-9.6s-5.4-.1-5.4 5.2v8.8c.2-.1-.7 5.3 9.9 5.3zm5.3-3.1c-.2 0-.5 0-.7-.1-.2-.1-.4-.2-.6-.4-.2-.2-.3-.4-.4-.6-.1-.2-.1-.4-.1-.7 0-.5.2-.9.5-1.2.3-.3.8-.5 1.2-.5.2 0 .5 0 .7.1.2.1.4.2.6.4.2.2.3.4.4.6.1.2.1.4.1.7 0 .5-.2.9-.5 1.2s-.7.5-1.2.5z"/></svg>