<svg xmlns="http://www.w3.org/2000/svg" viewBox="0 0 40 40" fill="none"><g fill="#53C1DE" clip-path="url(clip0)"><path fill-rule="evenodd" d="M31.604 13.137c.432.128.861.268 1.286.418 4.32 1.533 7.113 3.934 7.113 6.415 0 2.59-2.983 5.12-7.57 6.686-.242.084-.49.163-.744.24.09.365.17.733.242 1.103.904 4.712.208 8.586-1.938 9.866-2.077 1.238-5.435.022-8.835-2.993-.37-.33-.73-.668-1.082-1.018-.278.28-.557.544-.834.794-3.51 3.161-7.114 4.474-9.262 3.196-2.079-1.235-2.732-4.841-1.896-9.38.09-.495.196-.986.316-1.475a19.546 19.546 0 01-1.082-.347C2.906 25.087.003 22.526.003 19.972c0-2.474 2.705-4.86 6.94-6.38.473-.17.967-.33 1.479-.481a28.11 28.11 0 01-.294-1.365c-.878-4.62-.263-8.314 1.824-9.559 2.174-1.297 5.795.097 9.406 3.402.225.206.446.417.663.631.324-.322.657-.636.997-.941 3.446-3.094 6.86-4.385 8.945-3.146 2.176 1.294 2.815 5.223 1.839 10.099-.06.303-.127.605-.198.905zm-.325 12.065c.23-.07.453-.143.673-.217 3.966-1.35 6.409-3.421 6.409-5.013 0-1.496-2.261-3.438-5.97-4.75-.383-.138-.78-.268-1.191-.39a42.067 42.067 0 01-1.95 5.147 42.052 42.052 0 012.03 5.223zm-.78 8.58c.265-1.473.208-3.358-.194-5.442h.002a22.782 22.782 0 00-.217-.997c-1.786.415-3.6.703-5.427.862a41.249 41.249 0 01-3.359 4.387c.337.333.673.65 1.008.945 2.91 2.578 5.612 3.556 6.875 2.803.593-.353 1.073-1.236 1.312-2.559zm-19.643 2.54c.592.351 1.576.34 2.808-.11h.002c1.372-.5 2.93-1.491 4.486-2.889.26-.234.513-.475.763-.723a42.69 42.69 0 01-3.44-4.373c-1.942-.163-3.76-.43-5.4-.804-.11.454-.206.91-.293 1.37-.716 3.882-.192 6.778 1.073 7.528zM3.211 22.423c1.107.974 2.72 1.866 4.673 2.552v.002c.328.114.658.22.99.317a43.637 43.637 0 011.977-5.28A42.877 42.877 0 018.9 14.81a22.89 22.89 0 00-1.38.446c-3.628 1.3-5.804 3.216-5.804 4.716 0 .706.503 1.576 1.496 2.452zm7.614-18.711c-1.257.75-1.758 3.737-1.006 7.697.082.425.174.848.276 1.27a40.868 40.868 0 015.348-.856 41.997 41.997 0 013.414-4.345 30.083 30.083 0 00-.602-.572c-3.125-2.852-6.088-3.992-7.43-3.194zm15.063 10.024c.42.678.827 1.366 1.219 2.062.397.705.782 1.421 1.151 2.144.508-1.22.938-2.41 1.283-3.549a36.73 36.73 0 00-3.653-.657zm-3.472-2.072a37.527 37.527 0 00-2.358-2.929 38.8 38.8 0 00-2.379 2.927 48.982 48.982 0 014.737.002zm-10.584 6.278a53.06 53.06 0 012.36-4.21 37.495 37.495 0 00-3.632.642c.367 1.209.792 2.4 1.272 3.568zm-1.297 7.78a35.48 35.48 0 003.694.613v-.002a52.19 52.19 0 01-2.393-4.25 40.076 40.076 0 00-1.3 3.64zm7.16 2.641a39.37 39.37 0 002.41 2.965v.002a37.045 37.045 0 002.353-2.977 58.065 58.065 0 01-4.763.01zm11.926-2.717a37.807 37.807 0 00-1.346-3.627 56.452 56.452 0 01-2.393 4.283 35.512 35.512 0 003.739-.656zm-5.913.869a58.59 58.59 0 001.921-3.19h.002a54.677 54.677 0 001.722-3.338 58 58 0 00-3.659-6.48 47.13 47.13 0 00-7.305 0 49.712 49.712 0 00-3.646 6.506 50.18 50.18 0 003.667 6.516c1.169.078 2.38.118 3.63.118 1.251 0 2.479-.045 3.668-.132zm6.475-14.64c.842-4.211.32-7.42-1.022-8.217-1.26-.745-4.024.298-6.982 2.948-.316.28-.623.572-.923.869a41.181 41.181 0 013.388 4.348c1.89.184 3.696.477 5.358.873.065-.273.125-.547.18-.82z" clip-rule="evenodd"/><path d="M20.038 16.29c1.977 0 3.577 1.646 3.577 3.68 0 2.034-1.602 3.681-3.577 3.681-1.976 0-3.579-1.647-3.579-3.68 0-2.033 1.603-3.682 3.58-3.682z"/></g><defs><clipPath id="clip0"><path fill="#FFF" d="M0 0h40v40H0z"/></clipPath></defs></svg>