<svg xmlns="http://www.w3.org/2000/svg" viewBox="0 0 40 40" fill="none"><g clip-path="url(clip0)"><path fill="#00B04C" d="M0 0h40v40H0z"/><path fill="#F5F7F9" d="M40.267 5.48c.131.05.252-6.08.252-5.921h-3.237c-.047 0-.095-.01-.139.015.2.093.25.272.118.453-.266.367-.535.731-.803 1.096l-7.076 9.638-2.342 3.19c-.163.22-.447.24-.627.04-.454-.504-.907-1.01-1.36-1.515-.762-.847-1.523-1.695-2.286-2.541-.201-.223-.466-.207-.648.03l-1.388 1.814c-.242.316-.487.632-.724.952a.37.37 0 00.03.495l.15.158 6.344 6.53c.21.216.435.214.637-.009.288-.317.57-.639.855-.959l3.717-4.168.217-.243.409-.459 3.524-3.952 4.051-4.54c.104-.117.209-.15.326-.105z"/><path fill="#FFFFFE" d="M11.665 36.513a9.72 9.72 0 01-4.556-.968 10.293 10.293 0 01-2.124-1.382c-.317-.263-.302-.467-.089-.756.484-.655.95-1.324 1.425-1.988.174-.244.403-.276.626-.073a7.625 7.625 0 002.346 1.462 7.4 7.4 0 002.723.512c.668.002 1.324-.083 1.93-.386.446-.223.806-.54.983-1.025.201-.551.037-1.115-.422-1.482-.365-.293-.791-.462-1.228-.605-.739-.24-1.497-.409-2.252-.59-1.009-.24-2.01-.505-2.958-.936-.675-.308-1.293-.698-1.803-1.245a4.008 4.008 0 01-1.007-2.01 5.34 5.34 0 01-.083-1.356c.04-.658.22-1.28.525-1.866.377-.724.916-1.3 1.58-1.766.723-.508 1.526-.829 2.384-1.022.93-.21 1.873-.242 2.82-.2a9.44 9.44 0 013.546.873c.72.33 1.387.751 2.006 1.246.153.122.172.346.043.517-.392.522-.786 1.042-1.179 1.563l-.36.477c-.189.25-.395.277-.64.084a7.388 7.388 0 00-2.47-1.279 7.146 7.146 0 00-2.554-.29c-.533.036-1.048.161-1.475.509-.465.38-.659.873-.529 1.469.061.278.252.474.478.638.4.288.86.442 1.323.581.914.273 1.85.456 2.771.701.88.234 1.75.502 2.564.918.734.375 1.387.854 1.875 1.533.354.493.584 1.041.687 1.637.191 1.099.104 2.173-.337 3.207-.438 1.026-1.17 1.785-2.132 2.33-.714.406-1.486.647-2.291.796-.687.126-1.38.162-2.146.172zm16.863-5.6H24.13c-.223 0-.25.03-.196.247.32 1.303 1.119 2.16 2.4 2.571.462.148.935.15 1.41.119a5.65 5.65 0 002.702-.88c.07-.045.138-.093.207-.14.186-.127.37-.1.5.086.2.284.394.572.59.859l.476.698c.125.187.094.372-.088.501a8.227 8.227 0 01-3.24 1.387c-.808.157-1.624.181-2.437.14-1.423-.074-2.688-.579-3.785-1.494-1.064-.888-1.757-2.01-2.105-3.346a6.36 6.36 0 01-.193-1.675c.005-.448.001-.897.074-1.342a6.408 6.408 0 011.108-2.72c.98-1.371 2.302-2.231 3.946-2.599.666-.15 1.342-.163 2.022-.115a6.147 6.147 0 012.495.705 5.716 5.716 0 011.967 1.724c.631.877 1.008 1.857 1.199 2.916.12.668.145 1.343.151 2.02.002.197-.124.325-.321.336-.04.003-.08.002-.12.002h-4.364zm-1.55-2.263h2.916c.032 0 .065.002.098-.001.084-.008.123-.053.11-.139-.019-.113-.032-.229-.058-.34-.256-1.094-.918-1.825-1.978-2.194-.382-.133-.78-.139-1.18-.134a3.018 3.018 0 00-1.914.673 2.999 2.999 0 00-1.105 1.904c-.033.199-.004.231.196.231h2.915z"/></g><defs><clipPath id="clip0"><path fill="#FFF" d="M0 0h40v40H0z"/></clipPath></defs></svg>