<svg viewBox="0 0 40 40" fill="none" xmlns="http://www.w3.org/2000/svg"><path d="M8.71 4.19L19.96 3l11.25 1.19 8.71 11.71-19.96 23.23L0 15.9 8.71 4.2z" fill="#FDB300"/><path d="M8.09 15.9l11.87 23.23L0 15.9h8.09zm23.74 0L19.96 39.13 39.92 15.9h-8.09z" fill="#EA6C00"/><path d="M8.09 15.9h23.74L19.96 39.13 8.09 15.9z" fill="#FDAD00"/><path d="M19.96 3L8.71 4.19 8.09 15.9 19.96 3zm0 0L31.2 4.19l.62 11.71L19.96 3z" fill="#FDD231"/><path d="M39.92 15.9L31.2 4.2l.62 11.71h8.09zM0 15.9L8.71 4.2l-.62 11.7H0z" fill="#FDAD00"/><path d="M19.96 3L8.09 15.9h23.74L19.96 3z" fill="#FEEEB7"/></svg>