<svg viewBox="0 0 40 40" fill="none" xmlns="http://www.w3.org/2000/svg"><g clip-path="url(clip0)"><path d="M8.43 25.27a4.2 4.2 0 11-4.2-4.2h4.2v4.2zm2.1 0a4.2 4.2 0 118.4 0v10.5a4.2 4.2 0 11-8.4 0v-10.5z" fill="#E01E5A"/><path d="M14.73 8.4a4.2 4.2 0 114.2-4.2v4.2h-4.2zm0 2.13a4.2 4.2 0 110 8.4H4.2a4.2 4.2 0 110-8.4h10.53z" fill="#36C5F0"/><path d="M31.57 14.73a4.2 4.2 0 114.2 4.2h-4.2v-4.2zm-2.1 0a4.2 4.2 0 11-8.4 0V4.2a4.2 4.2 0 118.4 0v10.53z" fill="#2EB67D"/><path d="M25.27 31.57a4.2 4.2 0 11-4.2 4.2v-4.2h4.2zm0-2.1a4.2 4.2 0 110-8.4H35.8a4.2 4.2 0 110 8.4H25.27z" fill="#ECB22E"/></g><defs><clipPath id="clip0"><path fill="#FFF" d="M0 0h40v40H0z"/></clipPath></defs></svg>