<svg viewBox="0 0 40 40" fill="none" xmlns="http://www.w3.org/2000/svg"><path d="M39.79 14.08a5.6 5.6 0 00-.17-.88l-.12-.18a7.68 7.68 0 00-1.45-.88c-.41-.2-.83-.37-1.26-.52a18.08 18.08 0 00-5.9-8.3A15.4 15.4 0 0021.47.07a15.4 15.4 0 00-9.41 3.23 18.07 18.07 0 00-5.9 8.3c-.43.16-.85.34-1.27.53-.5.24-1 .52-1.45.88l-.11.18a10.25 10.25 0 00-.26 1.76 11.22 11.22 0 00.66 4.32c.05.14.1.28.17.42l.1.2.13.22.16.14.26.14.26.11.14.06a21.6 21.6 0 00-3.55 4.28L0 27.07l1.96-1.73c.03-.03 1.68-1.47 4.42-3.1l.04.32c-.18.1-1.04.55-1.3.77-.42.36-.45.9-.33 1.94.06.52.25 1.55.52 2.49.45 1.61.79 1.9 1.08 1.96.14.04.3.05.5.05.52 0 1.2-.1 1.63-.23.5 1.55 1.21 3.01 2.14 4.35-.05 0-.09.02-.13.03-.54-.25-2.4-1.12-3.03-1.4l-1.32-.6.78 1.22c.05.09 1.4 2.2 2.49 3.62 1.03 1.32 2.43 2.68 5.07 2.68.32 0 .65-.02 1-.06l1.83-.22a12.32 12.32 0 0010.93-1.1c1.12-.28 2.34-.58 2.95-.75l.34-.08c.85-.2 2.26-.53 3.01-2.04.76-1.53 2-3.87 2-3.9l.58-1.09-1.12.5c-.06.02-1.49.65-2.23 1.04.52-1.2.82-2.19.92-2.57.42.1 1.03.1 1.49.1.22 0 .45-.05.6-.09.29-.07.52-.27.94-1.93.25-.97.43-2.03.48-2.57.1-1.06.06-1.62-.36-1.98a9.69 9.69 0 00-1.16-.68c.18-.08.27-.06.27-.05l.29-1.1a15.63 15.63 0 00.85-.35l.26-.13.27-.13.15-.14a4.48 4.48 0 00.4-.84c.12-.27.2-.55.29-.84.38-1.42.48-2.9.29-4.36z" fill="#0E0F0D"/><path d="M23.3 36.8l-.64.07-.41.02h-.05l.38-.87.71.77z" fill="#E1C5A2"/><path d="M23.03 20.32c-.33.27-.68.52-1.04.74l-1.22.74c-.76.1-1.42.29-1.46.3a.28.28 0 00-.19.18l-1.24 4.12-6.61 1.48-2.1-1.47-.6-4.95c1.19-.22 2.77-.48 4.67-.69-.2.25-.4.5-.59.78l-1.13 1.63 1.65-1.1c.02-.02 1.07-.72 2.79-1.56a74.9 74.9 0 017.07-.2zm-10.3 5.57c.47-.25 1-.21 1.84-.21h.52c.86-.02 1.57.06 1.56-1.3-.01-1.35-.61-2.44-1.47-2.43-.85 0-1.68 1.11-1.63 2.47.01.35.06.6.15.79-.75.19-.96.65-.97.68zm21.78-4.45l-.6 4.21-2.1 1.49-6.61-.76-1.24-4.1a.28.28 0 00-.19-.18 9.99 9.99 0 00-1.72-.33h.16c.13-.02 2.41-.3 5.14-1.25 2.4.19 4.79.5 7.16.92zm-4.23 3.9c0-.04-.19-.58-.98-.48.09-.2.13-.48.1-.85-.1-1.35-.89-2.43-1.74-2.4-.86.03-1.4 1.15-1.36 2.51.05 1.36.77 1.34 1.62 1.31 1.15-.02 1.78-.37 2.36-.1z" fill="#A89983"/><path d="M28.02 22.9a.44.44 0 01-.74.33.44.44 0 01-.01-.63.44.44 0 01.62 0 .43.43 0 01.13.3zm-12.27.33a.44.44 0 01-.74.33.44.44 0 01.46-.73.44.44 0 01.28.4z" fill="#FFF"/><path d="M37.39 23.3a7.45 7.45 0 00-.79-.48l-.55 3.92a.29.29 0 01-.11.19l-.8.56-.05.24c.78.2 1.54-.37 1.96-.78.2-.77.37-1.69.43-2.34.1-1.02.01-1.23-.09-1.32zM25.15 38.15c-.53-.2-1-.5-1.4-.9l-.1-.1c-.32.07-.64.12-.97.14l-.42.02h-.3A3.77 3.77 0 0120 38.68c1.92.33 4.04-.18 5.15-.52zM8.22 28.58l-.05-.18-1.03-.73a.28.28 0 01-.12-.2l-.5-4.1c-.37.2-.8.44-.92.54-.1.08-.17.3-.07 1.27.09.74.34 1.87.6 2.72.53.4 1.3.82 2.09.67zm15.39-.2a.28.28 0 01-.23-.19l-1.27-4.22a4.42 4.42 0 00-1.13 0l-1.23 4.1a.28.28 0 01-.2.19l-.6.13c-.05.21-.22.52-.77.69-.88.27-6.47 1.95-7.11 1.86a5.97 5.97 0 01-1.6-.77c.5 1.24 1.16 2.4 1.92 3.5 1.6-.48 2.97-.92 3.4-1.06.9-1.39 2.18-2.77 3.08-2.81.58-.03 1.16-.01 1.74.06-.33-.3-.4-.66-.45-.82 0 0 1.16.91 2.63.72 1.47-.19 2.38-1.04 2.38-1.04l.03-.27-.59-.06" fill="#E1C5A2"/><path d="M24.8 28.92a1.23 1.23 0 01-.61-.34l-.02.14s0 .62-.65 1.1a8.7 8.7 0 012.1-.5c.38 0 .57.16.74.3l.1.09 2.42 1.93c.39.05 1.61.19 2.38.26a13.32 13.32 0 001.6.06c.4-.78.78-1.65 1.12-2.6a7.96 7.96 0 01-1.99 1.11c-.63.12-6.3-1.32-7.18-1.55" fill="#E1C5A2"/><path d="M39.05 14.16a9.36 9.36 0 00-.08-.69c-.37-.3-.77-.58-1.19-.81a27.61 27.61 0 00-3.67-1.68l-.76-.29a19.01 19.01 0 012.62.65C33.55 4.97 27.77.84 21.47.84c-6.3 0-12.08 4.13-14.5 10.5a21.04 21.04 0 012.63-.65 28.14 28.14 0 00-1.52.59 28.58 28.58 0 00-2.92 1.38c-.42.23-.81.5-1.18.81a12 12 0 00.3 4.74c.1.45.27.89.48 1.3l.03.07.12.06.24.11.47.23.03-.03-.45-1.71c.8-.2 1.6-.38 2.4-.53a7.04 7.04 0 01-1.79-.61 1.59 1.59 0 01-.4-.31c1.6.53 4.9.29 7.85-.02 2.7-.3 5.4-.45 8.1-.47 2.71.02 5.42.18 8.1.47 2.95.3 6.26.55 7.87.02-.12.12-.26.23-.4.3a4.93 4.93 0 01-1.45.55l-.15.03c1.6.3 2.54.54 2.63.57l-.42 1.63.26-.12.23-.11.13-.06.03-.07a5.95 5.95 0 00.48-1.3 11.86 11.86 0 00.39-4.05" fill="#E0D896"/><path d="M28.1 11c.03.73.01 2.05-.32 3.28a.27.27 0 000 .14l-1.29-.11c.48-1.02.59-2.1.61-2.48.37-.27.74-.59 1-.83zm-12.25.83c.02.38.12 1.46.6 2.47l-1.28.12a.27.27 0 000-.14 11.7 11.7 0 01-.33-3.28c.27.24.63.56 1 .83zm17.52 3.6v.04l.13.04c.4.13.8.27 1.17.45-.63-.42-1.03-1.61-1.25-2.53.06 1.2-.04 1.96-.05 2zm-19.06-4.66l-4.09 1.17a13.86 13.86 0 00-.13 3.25h.02s.13-1.76.4-2.43c.14-.34 1-.56 1.65-.72.66-.15 1.7-.47 1.9.46.13.57.3 1.04.47 1.4-.2-1.03-.27-2.09-.22-3.13zm14.33 0c.05 1.1-.03 2.2-.25 3.27.18-.35.39-.89.53-1.54.2-.93 1.25-.61 1.9-.46.66.16 1.51.38 1.65.72a11 11 0 01.4 2.3c.04-.5.08-1.66-.14-3.12l-4.1-1.17zm-12.83.35l.45.34c.07.05.11.13.11.22a6.6 6.6 0 00.65 2.58 66.16 66.16 0 018.9 0l.02-.06a6.6 6.6 0 00.63-2.52.28.28 0 01.12-.22c.14-.1.29-.21.42-.33l.02-.05c.31-3.04-.25-5.84-.61-7.22-.02.95-.25 9.05-2.24 9.05h-5.51c-2.12 0-2.3-9.14-2.3-9.14l-.1.33a21.13 21.13 0 00-.56 7.02zm-6.23 4.35v-.04c-.08-.66-.1-1.33-.05-2-.22.92-.63 2.11-1.26 2.53.38-.18.78-.32 1.17-.45l.14-.04z" fill="#D7C184"/><path d="M35.1 27.73l-.12.54c.45.1 1.2.19 1.55.12.15-.17.35-.75.52-1.44-.42.41-1.18.98-1.95.78zM18.8 38.94c1.07.3 2.18.42 3.29.36 1.38-.1 2.74-.41 4.03-.93a3.7 3.7 0 01-.98-.21c-1.11.34-3.23.85-5.15.52a5.38 5.38 0 01-1.19.26zM8.3 28.82l-.07-.24c-.8.14-1.56-.28-2.09-.68.17.54.34.97.47 1.1.4.07 1.26-.05 1.69-.18zm1.17 1.36c.53.31 1.23.71 1.6.76.64.1 6.24-1.59 7.12-1.86.55-.17.72-.48.77-.69l-8.07 1.81-.06.01a.28.28 0 01-.16-.05l-.32-.22-.94-.67-.38-.27.02.07.07.19c.02.08.14.42.35.92zm24.76-1.57l.15-.58-.28.2-.76.53-.81.58a.28.28 0 01-.2.05l-8.12-.94-.02.13c.17.17.39.3.62.34.9.24 6.56 1.67 7.2 1.55.48-.09 1.52-.8 1.98-1.12v-.03c.09-.23.16-.47.24-.7" fill="#9F8F78"/><path d="M25.62 17.58l-.2.27c-.49.61-1 1.19-1.56 1.73a72.03 72.03 0 00-5.97.06 29.3 29.3 0 015.8-1.78 22.2 22.2 0 011.93-.28zm-9.7.74c-.68.48-1.32 1.02-1.9 1.6a72.9 72.9 0 00-4.3.57 32.38 32.38 0 016.2-2.17zm20.27 3.46l-.67 4.76-3.24 2.28-8.43-.97-1.27-4.21a.28.28 0 00-.22-.2 5.2 5.2 0 00-1.64 0 .28.28 0 00-.22.2l-1.24 4.11-8.38 1.88-3.33-2.34-.65-5.35.43-.24.7-.14.61 5.04a.27.27 0 00.12.2l2.29 1.6a.28.28 0 00.22.05l6.9-1.54a.28.28 0 00.2-.2l1.24-4.12a8.53 8.53 0 011.93-.28c.75 0 1.6.2 1.94.28l1.24 4.12c.03.11.12.19.23.2l6.9.8c.06 0 .13-.02.19-.06l2.29-1.61a.29.29 0 00.11-.19l.61-4.3c.46.08.84.16 1.14.23zm.86-2.99l-.6 2.27a64.46 64.46 0 00-7.5-1.15c1.23-.52 2.4-1.18 3.49-1.95 2.16.3 3.74.64 4.6.83zm-30.93 0l.17.63c.4-.32.81-.63 1.24-.92-.59.11-1.06.21-1.4.3z" fill="#6E6A67"/><path d="M29.4 17.53l-2.72-.14a17.38 17.38 0 01-3 3.36c.93-.29 4.6-1.53 6.47-3.18l-.75-.04zm-6.65-.24a148.32 148.32 0 00-3.42 0l-1.25.6a30.1 30.1 0 01-2.96 2.2c.84-.57 3.1-1.92 6.6-2.81h1.03zm-7.69.15a148.43 148.43 0 00-3.74.22c-.43.03-.85.08-1.28.12-.87.53-4.21 2.64-6.5 5.4l.11-.13a26.14 26.14 0 0111.41-5.61zm19.22 15.02l-.07.04c-.43.23-.98.34-1.7.34-.44 0-.86-.04-1.32-.08-.85-.08-1.69-.18-2.53-.28h-.12l-.1-.09-2.51-2-.13-.1c-.11-.1-.11-.1-.18-.1-.36 0-1.4.32-3.69 1.03l-.13.05-.14-.05c-.02-.01-1.52-.57-3.31-.57l-.44.01c-.18.01-1.18.5-2.47 2.55l-.09.13-.14.05c-.03 0-2.25.73-4.6 1.4l-.15.05-.15-.07-1.8-.84.19.1c.86.74 2.52 2.2 2.7 2.4l.1.1-.12-.15c.38.36.8.68 1.27.9a2.73 2.73 0 001.1.27c.13 0 .26 0 .39-.02a50.26 50.26 0 005.43-.62c.13-.02.26-.06.36-.1.1-.06.2-.13.29-.21a11.51 11.51 0 001.1-1.11c.31-.33.57-.67.87-1l.12-.13v.01l.18.14 1.08.8c.45.32.91.65 1.4.92a2.16 2.16 0 00.44.19h.28a39.68 39.68 0 002.45-.4 59.46 59.46 0 003.26-.72c.27-.07.54-.14.77-.25.25-.12.47-.27.68-.45.42-.37.77-.81 1.07-1.3.14-.27.27-.55.36-.84zM24.1 6.58h.96V4.62h-7.02v1.96H19v-1h1.98v6.08h-.81v1.13h2.76v-1.13h-.82V5.59h1.99v1" fill="#93232C"/><path d="M31.37 17.66l-1.2-.08h-.02c-1.86 1.64-5.54 2.88-6.46 3.18l-.06.04c1.2-.21 2.98-.64 4.82-1.47.96-.42 1.87-.93 2.72-1.52l.2-.15zm-9.65-.38c-3.5.89-5.76 2.24-6.6 2.82.87-.45 1.76-.86 2.67-1.24l.1-.04.24-.1.36-.14.17-.06.2-.08.2-.07.2-.07.23-.08.18-.06.26-.1.15-.04a27.37 27.37 0 012.67-.73l-1.03-.01zm-6.66.16c-2.5.53-7.16 1.95-11.4 5.6l-.13.15A37.25 37.25 0 0114 18.06c.92-.28 1.86-.5 2.8-.7l-1.73.08zm20.05 14.62a10 10 0 00-.13.06l-.07.04-.06.02-.08.04-.04.02-.1.05-.02.01-.1.05h-.01l-.22.11c-.1.3-.22.57-.36.84-.29.49-.65.93-1.07 1.3-.2.17-.43.33-.68.45-.24.11-.5.18-.77.25a44.23 44.23 0 01-3.26.72 37.56 37.56 0 01-2.45.4 3.75 3.75 0 01-.33-.01c-.14-.05-.27-.1-.4-.18-.48-.28-.94-.59-1.4-.92l-1.07-.8-.03.04.07.06-.05-.03.3.35.03.04c.16.18.79.93 1.55 1.68.57.58 1.26.87 2.06.87.27 0 .55-.04.84-.11l.86-.2c.83-.2 1.67-.41 2.5-.63l.13-.03.25-.06.38-.1c.79-.19 1.86-.44 2.43-1.59l.52-1.02.86-1.67.06-.11-.14.06zm-12.87 2.48l-.05-.05c-.3.33-.56.67-.86 1a22.1 22.1 0 01-1.11 1.1 1.5 1.5 0 01-.3.22 10.46 10.46 0 01-1.11.24 49.48 49.48 0 01-5.06.5c-.13 0-.25-.02-.38-.04a2.63 2.63 0 01-.72-.23c-.47-.23-.9-.54-1.27-.9l.16.18-.03-.03a102.75 102.75 0 00-2.8-2.5l-.2-.1c.5.78 1.05 1.55 1.62 2.3.94 1.22 2.12 2.34 4.4 2.34.36 0 .73-.02 1.1-.08l.2-.02c1.97-.23 2.51-.32 2.81-.38l.22-.03.09-.02s.68-.08 1.33-.4c.45-.22.9-.55 1.1-1.04l.67-1.54.2-.52z" fill="#731B2A"/><path d="M27.6 23.35a.44.44 0 10-.33-.75.43.43 0 00-.13.32.44.44 0 00.45.43zm2.68 1.99c-.58-.29-1.2.07-2.36.1-.86.02-1.57.04-1.62-1.32-.05-1.36.5-2.48 1.36-2.5.85-.04 1.64 1.04 1.74 2.39.03.37-.01.64-.1.85.8-.1.97.45.98.48zm-14.95-1.66a.44.44 0 00.42-.45.44.44 0 10-.82-.2.44.44 0 00.01.44c.09.13.23.21.39.2zm1.32.7c.01 1.36-.7 1.28-1.56 1.3a7.81 7.81 0 01-.53 0c-.83 0-1.36-.04-1.83.21.01-.03.22-.5.97-.68a2.17 2.17 0 01-.15-.8c-.05-1.35.78-2.46 1.63-2.46.86-.01 1.46 1.08 1.47 2.44zm16.22-9.31l-.02.25a29.05 29.05 0 00-4.46-.83l-.12-.01a11.5 11.5 0 00.36-3.71l4.1 1.17c.22 1.47.18 2.62.14 3.13zm-5.1-.79a.27.27 0 000 .15 52.8 52.8 0 00-1.28-.12c.48-1.02.59-2.1.61-2.48.37-.27.74-.59 1-.83.03.73.01 2.05-.32 3.28zm-12.6.14a.27.27 0 000-.14 11.84 11.84 0 01-.33-3.28c.27.24.63.56 1 .83.03.38.13 1.46.61 2.47l-1.28.12zm-.62.07a42.8 42.8 0 00-3.43.57c-.34.08-.68.16-1.02.26-.1-1.13-.06-2.26.12-3.38l4.09-1.17a12.92 12.92 0 00.34 3.66l.02.04-.12.02zm20.51 1.67l-.1-.05-.17-.09a10.76 10.76 0 00-1.43-.55l.01-.04c0-.04.1-.8.05-2-.04-.58-.1-1.17-.2-1.75a.27.27 0 00-.18-.21l-.59-.17c-.12-4.55-1.98-6.69-2.04-6.75a12.59 12.59 0 011.62 6.63l-3.62-1.04h-.14a.2.2 0 00-.04.02h-.02l-.03.03h-.01l-.01.01-.01.01-.25.24c.01-.5 0-1-.03-1.5v-.18a14 14 0 00-1.62-5.82 21.23 21.23 0 01.88 8.13v.04l-.02.02-.42.32a.27.27 0 00-.12.22 6.6 6.6 0 01-.65 2.58 65.22 65.22 0 00-8.9 0l-.02-.05c-.6-1.16-.63-2.52-.63-2.54a.27.27 0 00-.11-.21c-.16-.1-.3-.22-.45-.34a21.13 21.13 0 01.88-8.17c-1.63 2.86-1.68 6.3-1.65 7.5a7.31 7.31 0 01-.25-.24l-.01-.02h-.01a.34.34 0 00-.04-.02l-.02-.01a.13.13 0 00-.04-.02h-.14l-3.62 1.04c-.02-.74-.04-3.94 1.62-6.63-.06.06-1.91 2.2-2.04 6.75l-.58.17a.27.27 0 00-.2.21c-.09.58-.15 1.17-.18 1.75-.05.67-.03 1.34.04 2l.01.04-.14.04a10.68 10.68 0 00-1.28.5v.01l-.18.08-.09.05-.05.03a14.22 14.22 0 011.66-.44c1.13-.2 2.26-.35 3.4-.45a115.86 115.86 0 018.57-.31 111.98 111.98 0 018.58.31 37 37 0 013.4.45 14.48 14.48 0 011.65.44l-.04-.02z" fill="#0E0F0D"/><path d="M22.11 5.59v6.07h.82v1.13h-2.76v-1.13h.81V5.6H19v1h-.96V4.62h7.02v1.97h-.96v-1h-1.99zM25.8 7.3V3.9h-8.47v3.42h2.4v-1h.54v4.62h-.82v2.59h4.21v-2.59h-.81V6.31h.54v1h2.4z" fill="#0E0F0D"/></svg>